<?xml version="1.0" encoding="utf-8"?>
<!-- Generator: Adobe Illustrator 22.0.1, SVG Export Plug-In . SVG Version: 6.00 Build 0)  -->
<svg version="1.1" id="Capa_1" xmlns="http://www.w3.org/2000/svg" xmlns:xlink="http://www.w3.org/1999/xlink" x="0px" y="0px"
	 viewBox="0 0 188.1 188.1" style="enable-background:new 0 0 188.1 188.1;" xml:space="preserve">
<style type="text/css">
	.st0{opacity:0.1;fill:#3C1053;}
	.st1{fill:#3C1053;}
</style>
<g>
	<rect x="0.7" y="0.7" class="st0" width="186.7" height="186.7"/>
</g>
<g>
	<path class="st1" d="M69.2,73.7L69.2,73.7C72.5,86.6,81,97.3,94.1,97.3c13.1,0,21.6-10.7,24.9-23.8v0.1c1.9,0,3.5-4.1,5.1-14.6
		c1.5-10.5-4.4-7-4.4-7v0.1c-2.5-13.2-10.8-24.2-25.6-24.2c-14.8,0-23,11-25.6,24.2V52c0,0-5.9-3.5-4.4,7
		C65.7,69.6,67.3,73.7,69.2,73.7"/>
	<polygon class="st1" points="113.6,133.9 120.4,133.9 133.5,113.8 116.5,104.9 93.9,163.6 93.2,161.7 92.8,160.8 90.2,153.9 
		71.3,104.9 54.3,113.8 67.4,133.9 74.2,133.9 72.7,140.5 90.5,169.7 93.7,169.7 94.1,169.7 97.4,169.7 115.2,140.5 	"/>
	<polygon class="st1" points="85.8,137 93.9,158 102.3,136.3 100.2,119.8 88,119.8 	"/>
	<polygon class="st1" points="70.5,140.9 70.7,140.1 71.7,135.9 67.4,135.9 66.3,135.9 65.7,135 52.6,114.9 52.5,114.7 47.9,117.1 
		35.7,128.8 48.1,169.7 88.1,169.7 70.9,141.6 	"/>
	<rect x="88.5" y="106.8" class="st1" width="11.2" height="11.2"/>
	<path class="st1" d="M139.9,117.1l-4.6-2.4l-0.1,0.2L122.1,135l-0.6,0.9h-1.1h-4.2l1,4.1l0.2,0.8l-0.4,0.7l-17.1,28.1h40l12.4-40.8
		L139.9,117.1z M136.4,158.5h-16.8v-4h16.8V158.5z"/>
	<path class="st1" d="M69.2,73.7L69.2,73.7C72.5,86.6,81,97.3,94.1,97.3c13.1,0,21.6-10.7,24.9-23.8v0.1c1.9,0,3.5-4.1,5.1-14.6
		c1.5-10.5-4.4-7-4.4-7v0.1c-2.5-13.2-10.8-24.2-25.6-24.2c-14.8,0-23,11-25.6,24.2V52c0,0-5.9-3.5-4.4,7
		C65.7,69.6,67.3,73.7,69.2,73.7"/>
	<polygon class="st1" points="113.6,133.9 120.4,133.9 133.5,113.8 116.5,104.9 93.9,163.6 93.2,161.7 92.8,160.8 90.2,153.9 
		71.3,104.9 54.3,113.8 67.4,133.9 74.2,133.9 72.7,140.5 90.5,169.7 93.7,169.7 94.1,169.7 97.4,169.7 115.2,140.5 	"/>
	<polygon class="st1" points="85.8,137 93.9,158 102.3,136.3 100.2,119.8 88,119.8 	"/>
	<polygon class="st1" points="70.5,140.9 70.7,140.1 71.7,135.9 67.4,135.9 66.3,135.9 65.7,135 52.6,114.9 52.5,114.7 47.9,117.1 
		35.7,128.8 48.1,169.7 88.1,169.7 70.9,141.6 	"/>
	<rect x="88.5" y="106.8" class="st1" width="11.2" height="11.2"/>
	<path class="st1" d="M139.9,117.1l-4.6-2.4l-0.1,0.2L122.1,135l-0.6,0.9h-1.1h-4.2l1,4.1l0.2,0.8l-0.4,0.7l-17.1,28.1h40l12.4-40.8
		L139.9,117.1z M136.4,158.5h-16.8v-4h16.8V158.5z"/>
</g>
</svg>
