<?xml version="1.0" encoding="utf-8"?>
<!-- Generator: Adobe Illustrator 22.0.1, SVG Export Plug-In . SVG Version: 6.00 Build 0)  -->
<svg version="1.1" id="Capa_1" xmlns="http://www.w3.org/2000/svg" xmlns:xlink="http://www.w3.org/1999/xlink" x="0px" y="0px"
	 viewBox="0 0 188.1 188.1" style="enable-background:new 0 0 188.1 188.1;" xml:space="preserve">
<style type="text/css">
	.st0{opacity:0.1;fill:#3C1053;}
	.st1{fill:#3C1053;}
</style>
<g>
	<rect x="1.4" y="2" class="st0" width="186.7" height="186.7"/>
	<path class="st1" d="M158.3,144.2c-2-9.3-8.6-14.7-15.8-17.8c2.9-30.5,3.8-57.2-11.3-77.6C115.9,28.2,95,29.1,95,29.1
		S63.2,27,51.7,62.9c-10.9,34.1-5.4,60.9-4.8,63.6c-5.4,2.4-10.4,6-13.4,11.6c-2.4,3.6-2.3,6.7-2.3,6.7c-0.1,1.1,0.4,2.1,1.2,2.8
		c21.8,19.7,52.3,26.9,80.4,21.7c1.2-0.2,2.4-0.5,3.6-0.7c15-3.4,29.2-10.4,40.9-21C158.2,146.7,158.5,145.4,158.3,144.2 M67.9,73.8
		c8.3-6.3,23.9-15.7,44-16.2c0.4,0.3,0.9,0.7,1.3,1.1c0.9,3.6,3.9,15.2,8.7,24.5c-0.7,7.1-3,15.4-7,22.2
		c-4.8,8.2-11.3,13.8-20.2,13.8c-8.8,0-15.4-5.6-20.2-13.8c-4.8-8.2-7.2-18.7-7.2-26.5C67.4,77.2,67.6,75.5,67.9,73.8 M116.3,119.6
		c0.7,0.4,1.5,0.7,2.2,0.9c-0.7-0.2-1.4-0.3-1.9-0.5C116.6,120,116.5,119.9,116.3,119.6 M53.8,131.4c7.7-2.4,16-2.7,21.6-4.9
		c2-0.8,3.6-2.4,4.5-4.2c0.1-0.2,0.2-0.3,0.2-0.5c4.2,2.8,9.1,4.5,14.6,4.5c5.6,0,10.5-1.7,14.8-4.6v0c0,0.1,0.1,0.2,0.1,0.3
		c0.8,1.8,2.3,3.6,4.4,4.5c5.6,2.1,13.9,2.5,21.7,4.9c7.1,2.2,12.8,5.5,15.1,12.3c-31.2,26.7-81,26.7-112.2,0
		C41,136.9,46.7,133.7,53.8,131.4"/>
</g>
</svg>
