<?xml version="1.0" encoding="utf-8"?>
<!-- Generator: Adobe Illustrator 22.0.1, SVG Export Plug-In . SVG Version: 6.00 Build 0)  -->
<svg version="1.1" id="Layer_3" xmlns="http://www.w3.org/2000/svg" xmlns:xlink="http://www.w3.org/1999/xlink" x="0px" y="0px"
	 viewBox="0 0 512 512" style="enable-background:new 0 0 512 512;" xml:space="preserve">
<style type="text/css">
	.st0{fill:#FAAF41;}
	.st1{fill:#3B1A53;}
</style>
<path class="st0" d="M496,208h-29.4c-5.4-24-14.8-46.6-28-67.3l23-23c1.5-1.5,2.3-3.5,2.3-5.7s-0.8-4.2-2.3-5.7l-56-56
	c-3.1-3.1-8.2-3.1-11.3,0l-23,23c-20.8-13.1-43.4-22.5-67.3-28V16c0-4.4-3.6-8-8-8h-80c-4.4,0-8,3.6-8,8v29.4
	c-24,5.4-46.6,14.8-67.3,28l-23-23c-3.1-3.1-8.2-3.1-11.3,0l-56,56c-1.5,1.5-2.3,3.5-2.3,5.7s0.8,4.2,2.3,5.7l23,23
	c-13.1,20.8-22.5,43.3-28,67.3H16c-4.4,0-8,3.6-8,8v80c0,4.4,3.6,8,8,8h29.4c5.4,24,14.8,46.6,28,67.3l-23,23
	c-3.1,3.1-3.1,8.2,0,11.3l56,56c3.1,3.1,8.2,3.1,11.3,0l23-23c20.7,13.1,43.3,22.5,67.3,28V496c0,4.4,3.6,8,8,8h80c4.4,0,8-3.6,8-8
	v-29.4c24-5.4,46.6-14.8,67.3-28l23,23c3.1,3.1,8.2,3.1,11.3,0l56-56c3.1-3.1,3.1-8.2,0-11.3l-23-23c13.1-20.7,22.5-43.3,28-67.3
	H496c4.4,0,8-3.6,8-8v-80C504,211.6,500.4,208,496,208z M488,288h-27.9c-3.8,0-7.1,2.7-7.8,6.5c-5.2,26.5-15.4,51.2-30.5,73.4
	c-2.2,3.2-1.7,7.4,1,10.1l21.9,21.9L400,444.7l-21.9-21.9c-2.7-2.7-7-3.1-10.1-1c-22.3,15.1-47,25.3-73.4,30.5
	c-3.8,0.7-6.5,4-6.5,7.8V488h-64v-27.9c0-3.8-2.7-7.1-6.5-7.8c-26.5-5.2-51.2-15.4-73.4-30.5c-3.2-2.1-7.4-1.7-10.1,1L112,444.7
	L67.3,400l21.9-21.9c2.7-2.7,3.1-7,1-10.1c-15.1-22.3-25.3-47-30.5-73.4c-0.7-3.8-4-6.5-7.8-6.5H24v-64h27.9c3.8,0,7.1-2.7,7.8-6.5
	c5.2-26.5,15.4-51.2,30.5-73.4c2.2-3.2,1.7-7.4-1-10.1L67.3,112L112,67.3l21.9,21.9c2.7,2.7,7,3.1,10.1,1
	c22.3-15.1,47-25.3,73.4-30.5c3.8-0.7,6.5-4,6.5-7.9V24h64v27.9c0,3.8,2.7,7.1,6.5,7.8c26.5,5.2,51.2,15.4,73.4,30.5
	c3.2,2.2,7.4,1.8,10.1-1L400,67.3l44.7,44.7l-21.9,21.9c-2.7,2.7-3.1,7-1,10.1c15.1,22.3,25.3,47,30.5,73.4c0.7,3.8,4,6.5,7.8,6.5
	H488V288z"/>
<path class="st1" d="M405.7,141.7c2.3-2.3,3-5.7,1.7-8.7c-1.2-3-4.2-4.9-7.4-4.9h-16v-16c0-3.2-1.9-6.2-4.9-7.4s-6.4-0.6-8.7,1.7
	l-3.2,3.2C335.3,85.4,296.2,72,256,72C154.5,72,72,154.5,72,256s82.5,184,184,184s184-82.5,184-184c0-40.2-13.4-79.3-37.6-111.1
	L405.7,141.7z M380.7,144l-16,16H352v-12.7l16-16v4.7c0,4.4,3.6,8,8,8H380.7z M424,256c0,92.6-75.4,168-168,168S88,348.6,88,256
	S163.4,88,256,88c35.9,0,71,11.7,99.7,33l-17.4,17.4c-1.5,1.5-2.3,3.5-2.3,5.7v20.7l-1.1,1.1C313.8,147.3,286.2,136,256,136
	c-66.2,0-120,53.8-120,120s53.8,120,120,120s120-53.8,120-120c0-30.2-11.3-57.8-29.8-78.9l1.1-1.1H368c2.1,0,4.2-0.8,5.7-2.3
	l17.4-17.4C412.3,185,424,220.1,424,256z M296,256c0,22.1-17.9,40-40,40s-40-17.9-40-40s17.9-40,40-40c8.1,0,15.7,2.5,22,6.7l-22,22
	V232h-16v32c0,4.4,3.6,8,8,8h32v-16h-12.7l22-22C293.5,240.3,296,247.9,296,256z M289.5,211.2c-7.3-5.5-16-9.2-25.5-10.6v-16.2
	c13.9,1.5,26.5,7,36.9,15.3L289.5,211.2z M248,200.6c-24.5,3.5-43.8,22.9-47.4,47.4h-16.2c3.7-33.3,30.2-59.8,63.5-63.5L248,200.6
	L248,200.6z M200.6,264c3.5,24.5,22.9,43.8,47.4,47.4v16.2c-33.3-3.7-59.8-30.2-63.5-63.5h16.1V264z M264,311.4
	c24.5-3.5,43.8-22.9,47.4-47.4h16.2c-3.7,33.3-30.2,59.8-63.5,63.5v-16.1H264z M311.4,248c-1.4-9.5-5.1-18.2-10.6-25.5l11.4-11.4
	c8.3,10.4,13.8,23,15.3,36.9H311.4z M312.3,188.4c-13.3-11.1-30-18.4-48.3-20v-16c22.7,1.7,43.3,10.7,59.6,24.7L312.3,188.4z
	 M248,168.4c-42.1,3.8-75.8,37.4-79.6,79.6h-16c3.9-51,44.6-91.7,95.6-95.6V168.4z M168.4,264c3.8,42.1,37.4,75.8,79.6,79.6v16
	c-51-3.9-91.7-44.6-95.6-95.6H168.4z M264,343.6c42.1-3.8,75.8-37.4,79.6-79.6h16c-3.9,51-44.6,91.7-95.6,95.6V343.6z M343.6,248
	c-1.7-18.3-8.9-34.9-20-48.3l11.3-11.3c14,16.3,23,36.9,24.7,59.6H343.6L343.6,248z"/>
</svg>
