<?xml version="1.0" encoding="utf-8"?>
<!-- Generator: Adobe Illustrator 22.0.1, SVG Export Plug-In . SVG Version: 6.00 Build 0)  -->
<svg version="1.1" id="Capa_1" xmlns="http://www.w3.org/2000/svg" xmlns:xlink="http://www.w3.org/1999/xlink" x="0px" y="0px"
	 viewBox="0 0 512 512" style="enable-background:new 0 0 512 512;" xml:space="preserve">
<style type="text/css">
	.st0{fill:#3B1A53;}
	.st1{fill:#FAAF41;}
</style>
<g>
	<g>
		<path class="st0" d="M479.4,249.3l-60-120c-2.9-5.1-7-8.3-13.4-8.3H106c-6.3,0-10.5,3.1-13.4,8.3l-60,120
			c-2.8,5.9-1.8,11.8,2.1,16.6l210,241c2.9,3.3,7,5.1,11.3,5.1s8.5-1.9,11.3-5.1l210-241C481.2,261.1,482.2,255.2,479.4,249.3z
			 M381.7,151l-38.3,76.6L286,151H381.7z M316,241H196l60-80L316,241z M226,151l-57.4,76.6L130.3,151H226z M106,169.5l35.7,71.5
			H70.3L106,169.5z M79,271h77.1L230,444.4L79,271z M256,428.8L188.7,271h134.6L256,428.8z M282,444.4l74-173.4H433L282,444.4z
			 M370.3,241l35.7-71.5l35.7,71.5H370.3z"/>
	</g>
</g>
<g>
	<g>
		<path class="st1" d="M256,0c-8.3,0-15,6.7-15,15v31c0,8.3,6.7,15,15,15s15-6.7,15-15V15C271,6.7,264.3,0,256,0z"/>
	</g>
</g>
<g>
	<g>
		<path class="st1" d="M192.4,66.1l-21.2-21.2c-5.9-5.9-15.4-5.9-21.2,0s-5.9,15.4,0,21.2l21.2,21.2c5.9,5.9,15.4,5.9,21.2,0
			C198.2,81.5,198.2,72,192.4,66.1z"/>
	</g>
</g>
<g>
	<g>
		<path class="st1" d="M362.1,44.9c-5.9-5.9-15.4-5.9-21.2,0l-21.2,21.2c-5.9,5.9-5.9,15.4,0,21.2c5.9,5.9,15.4,5.9,21.2,0
			l21.2-21.2C367.9,60.3,367.9,50.8,362.1,44.9z"/>
	</g>
</g>
</svg>
