<?xml version="1.0" encoding="utf-8"?>
<!-- Generator: Adobe Illustrator 22.0.1, SVG Export Plug-In . SVG Version: 6.00 Build 0)  -->
<svg version="1.1" id="Layer" xmlns="http://www.w3.org/2000/svg" xmlns:xlink="http://www.w3.org/1999/xlink" x="0px" y="0px"
	 viewBox="0 0 512 512" style="enable-background:new 0 0 512 512;" xml:space="preserve">
<style type="text/css">
	.st0{fill:#FAAF41;}
	.st1{fill:#3B1A53;}
</style>
<path class="st0" d="M389,231.9c14.7,12.7,14.7,35.4,0,48.2C359,306.2,286.8,344,256,344s-103-37.8-133-63.9
	c-14.7-12.7-14.7-35.4,0-48.2c30-26.1,102.2-63.9,133-63.9S359,205.8,389,231.9L389,231.9z M288,256c0-17.7-14.3-32-32-32
	s-32,14.3-32,32s14.3,32,32,32S288,273.7,288,256z"/>
<circle class="st0" cx="256" cy="256" r="32"/>
<g>
	<path class="st1" d="M432,64h-80c-8.8,0-16,7.2-16,16s7.2,16,16,16h64v64c0,8.8,7.2,16,16,16s16-7.2,16-16V80
		C448,71.2,440.8,64,432,64z"/>
	<path class="st1" d="M80,176c8.8,0,16-7.2,16-16V96h64c8.8,0,16-7.2,16-16s-7.2-16-16-16H80c-8.8,0-16,7.2-16,16v80
		C64,168.8,71.2,176,80,176z"/>
	<path class="st1" d="M80,448h80c8.8,0,16-7.2,16-16s-7.2-16-16-16H96v-64c0-8.8-7.2-16-16-16s-16,7.2-16,16v80
		C64,440.8,71.2,448,80,448z"/>
	<path class="st1" d="M432,336c-8.8,0-16,7.2-16,16v64h-64c-8.8,0-16,7.2-16,16s7.2,16,16,16h80c8.8,0,16-7.2,16-16v-80
		C448,343.2,440.8,336,432,336z"/>
	<path class="st1" d="M96,256c0,13.9,6,27.1,16.6,36.2C143.3,318.9,218.7,360,256,360s112.8-41.2,143.4-67.8
		C410,283.1,416,269.9,416,256s-6-27.1-16.5-36.2C368.8,193.2,293.3,152,256,152s-112.8,41.2-143.4,67.8C102,228.9,96,242.1,96,256z
		 M133.5,244c28.5-24.8,96.7-60,122.5-60s94,35.2,122.5,60c3.6,3.1,5.5,7.3,5.5,12c0,4.7-2,8.9-5.5,12c-28.5,24.8-96.7,60-122.5,60
		s-94-35.2-122.5-60l0,0c-3.6-3.1-5.5-7.3-5.5-12S130,247.1,133.5,244L133.5,244z"/>
	<path class="st1" d="M256,304c26.5,0,48-21.5,48-48s-21.5-48-48-48s-48,21.5-48,48S229.5,304,256,304z M256,240c8.8,0,16,7.2,16,16
		c0,8.8-7.2,16-16,16s-16-7.2-16-16S247.2,240,256,240z"/>
</g>
</svg>
